<?xml version="1.0" encoding="UTF-8"?>
<svg width="56px" height="38px" viewBox="0 0 56 38" version="1.1" xmlns="http://www.w3.org/2000/svg" xmlns:xlink="http://www.w3.org/1999/xlink">
    <!-- Generator: Sketch 45.2 (43514) - http://www.bohemiancoding.com/sketch -->
    <title>Shape</title>
    <desc>Created with Sketch.</desc>
    <defs></defs>
    <g id="Page-1" stroke="none" stroke-width="1" fill="none" fill-rule="evenodd">
        <g id="icon-contact1" fill-rule="nonzero" fill="#FFFFFF">
            <path d="M42.8,24.822 L42.8,21.59 C45.166,19.799 46.564,17.009 46.564,14.023 L46.564,9.505 C46.564,4.273 42.307,0.017 37.076,0.017 C31.842,0.017 27.584,4.273 27.584,9.505 L27.584,14.023 C27.584,17.009 28.981,19.798 31.35,21.59 L31.35,24.822 C28.955,25.219 26.731,25.877 24.758,26.729 C23.904,26.495 23.025,26.289 22.111,26.133 L22.111,23.431 C24.204,21.826 25.438,19.341 25.438,16.684 L25.438,12.69 C25.438,8 21.624,4.184 16.934,4.184 C12.243,4.184 8.426,8 8.426,12.69 L8.426,16.684 C8.426,19.341 9.661,21.826 11.755,23.431 L11.755,26.133 C7.237,26.9 3.359,28.673 1.022,31.06 L0.737,31.353 L0.737,37.983 L18.887,37.983 L33.13,37.983 L55.266,37.983 L55.266,30.667 L54.981,30.375 C52.336,27.678 47.931,25.676 42.8,24.822 Z M53.265,35.983 L31.129,35.983 L20.886,35.983 L20.886,31.494 C23.41,29.099 27.608,27.349 32.487,26.671 L33.349,26.551 L33.349,20.542 L32.907,20.245 C30.826,18.848 29.584,16.522 29.584,14.022 L29.584,9.504 C29.584,5.375 32.945,2.016 37.076,2.016 C41.205,2.016 44.564,5.375 44.564,9.504 L44.564,14.022 C44.564,16.522 43.323,18.849 41.243,20.245 L40.8,20.542 L40.8,26.551 L41.662,26.671 C46.542,27.35 50.74,29.1 53.265,31.494 L53.265,35.983 Z M2.735,32.181 C4.954,30.096 8.625,28.575 12.891,27.983 L13.753,27.862 L13.753,22.385 L13.31,22.088 C11.503,20.877 10.424,18.857 10.424,16.685 L10.424,12.69 C10.424,9.103 13.343,6.184 16.932,6.184 C20.518,6.184 23.436,9.102 23.436,12.69 L23.436,16.684 C23.436,18.857 22.358,20.876 20.552,22.087 L20.109,22.385 L20.109,27.861 L20.971,27.982 C21.325,28.031 21.666,28.095 22.012,28.157 C20.93,28.829 19.963,29.566 19.17,30.375 L18.885,30.667 L18.885,35.983 L2.735,35.983 L2.735,32.181 Z" id="Shape"></path>
        </g>
    </g>
</svg>