<?xml version="1.0" encoding="UTF-8"?>
<svg width="56px" height="56px" viewBox="0 0 56 56" version="1.1" xmlns="http://www.w3.org/2000/svg" xmlns:xlink="http://www.w3.org/1999/xlink">
    <!-- Generator: Sketch 45.2 (43514) - http://www.bohemiancoding.com/sketch -->
    <title>Artboard</title>
    <desc>Created with Sketch.</desc>
    <defs></defs>
    <g id="Page-1" stroke="none" stroke-width="1" fill="none" fill-rule="evenodd">
        <g id="Artboard" fill-rule="nonzero" fill="#F17398">
            <path d="M43.063,33.805 L43.063,30.573 C45.429,28.782 46.827,25.992 46.827,23.006 L46.827,18.488 C46.827,13.256 42.57,9 37.339,9 C32.105,9 27.847,13.256 27.847,18.488 L27.847,23.006 C27.847,25.992 29.244,28.781 31.613,30.573 L31.613,33.805 C29.218,34.202 26.994,34.86 25.021,35.712 C24.167,35.478 23.288,35.272 22.374,35.116 L22.374,32.414 C24.467,30.809 25.701,28.324 25.701,25.667 L25.701,21.673 C25.701,16.983 21.887,13.167 17.197,13.167 C12.506,13.167 8.689,16.983 8.689,21.673 L8.689,25.667 C8.689,28.324 9.924,30.809 12.018,32.414 L12.018,35.116 C7.5,35.883 3.622,37.656 1.285,40.043 L1,40.336 L1,46.966 L19.15,46.966 L33.393,46.966 L55.529,46.966 L55.529,39.65 L55.244,39.358 C52.599,36.661 48.194,34.659 43.063,33.805 Z M53.528,44.966 L31.392,44.966 L21.149,44.966 L21.149,40.477 C23.673,38.082 27.871,36.332 32.75,35.654 L33.612,35.534 L33.612,29.525 L33.17,29.228 C31.089,27.831 29.847,25.505 29.847,23.005 L29.847,18.487 C29.847,14.358 33.208,10.999 37.339,10.999 C41.468,10.999 44.827,14.358 44.827,18.487 L44.827,23.005 C44.827,25.505 43.586,27.832 41.506,29.228 L41.063,29.525 L41.063,35.534 L41.925,35.654 C46.805,36.333 51.003,38.083 53.528,40.477 L53.528,44.966 Z M2.998,41.164 C5.217,39.079 8.888,37.558 13.154,36.966 L14.016,36.845 L14.016,31.368 L13.573,31.071 C11.766,29.86 10.687,27.84 10.687,25.668 L10.687,21.673 C10.687,18.086 13.606,15.167 17.195,15.167 C20.781,15.167 23.699,18.085 23.699,21.673 L23.699,25.667 C23.699,27.84 22.621,29.859 20.815,31.07 L20.372,31.368 L20.372,36.844 L21.234,36.965 C21.588,37.014 21.929,37.078 22.275,37.14 C21.193,37.812 20.226,38.549 19.433,39.358 L19.148,39.65 L19.148,44.966 L2.998,44.966 L2.998,41.164 Z" id="Shape"></path>
        </g>
    </g>
</svg>