<svg xmlns="http://www.w3.org/2000/svg" xmlns:xlink="http://www.w3.org/1999/xlink" version="1.1" x="0px" y="0px" viewBox="0 0 56 70" enable-background="new 0 0 56 56" xml:space="preserve"><path d="M42.8,33.822V30.59c2.366-1.791,3.764-4.581,3.764-7.567v-4.518c0-5.232-4.257-9.488-9.488-9.488  c-5.234,0-9.492,4.256-9.492,9.488v4.518c0,2.986,1.397,5.775,3.766,7.567v3.232c-2.395,0.397-4.619,1.055-6.592,1.907  c-0.854-0.234-1.733-0.44-2.647-0.596v-2.702c2.093-1.605,3.327-4.09,3.327-6.747V21.69c0-4.69-3.814-8.506-8.504-8.506  c-4.691,0-8.508,3.816-8.508,8.506v3.994c0,2.657,1.235,5.142,3.329,6.747v2.702c-4.518,0.767-8.396,2.54-10.733,4.927l-0.285,0.293  v6.63h18.15h14.243h22.136v-7.316l-0.285-0.292C52.336,36.678,47.931,34.676,42.8,33.822z M53.265,44.983H31.129H20.886v-4.489  c2.524-2.395,6.722-4.145,11.601-4.823l0.862-0.12v-6.009l-0.442-0.297c-2.081-1.397-3.323-3.723-3.323-6.223v-4.518  c0-4.129,3.361-7.488,7.492-7.488c4.129,0,7.488,3.359,7.488,7.488v4.518c0,2.5-1.241,4.827-3.321,6.223L40.8,29.542v6.009  l0.862,0.12c4.88,0.679,9.078,2.429,11.603,4.823V44.983z M2.735,41.181c2.219-2.085,5.89-3.606,10.156-4.198l0.862-0.121v-5.477  l-0.443-0.297c-1.807-1.211-2.886-3.231-2.886-5.403V21.69c0-3.587,2.919-6.506,6.508-6.506c3.586,0,6.504,2.918,6.504,6.506v3.994  c0,2.173-1.078,4.192-2.884,5.403l-0.443,0.298v5.476l0.862,0.121c0.354,0.049,0.695,0.113,1.041,0.175  c-1.082,0.672-2.049,1.409-2.842,2.218l-0.285,0.292v5.316H2.735V41.181z"/><text x="0" y="71" fill="#000000" font-size="5px" font-weight="bold" font-family="'Helvetica Neue', Helvetica, Arial-Unicode, Arial, Sans-serif">Created by Rflor</text><text x="0" y="76" fill="#000000" font-size="5px" font-weight="bold" font-family="'Helvetica Neue', Helvetica, Arial-Unicode, Arial, Sans-serif">from the Noun Project</text></svg>