<?xml version="1.0" encoding="UTF-8"?>
<svg width="86px" height="86px" viewBox="0 0 86 86" version="1.1" xmlns="http://www.w3.org/2000/svg" xmlns:xlink="http://www.w3.org/1999/xlink">
    <!-- Generator: Sketch 45.2 (43514) - http://www.bohemiancoding.com/sketch -->
    <title>Shape</title>
    <desc>Created with Sketch.</desc>
    <defs></defs>
    <g id="Page-1" stroke="none" stroke-width="1" fill="none" fill-rule="evenodd">
        <g id="search" fill-rule="nonzero" fill="#FFFFFF">
            <path d="M79.342,85.842 C77.605,85.842 75.973,85.165 74.745,83.938 L57.97,67.162 C56.741,65.934 56.066,64.302 56.066,62.565 C56.066,61.246 56.457,59.986 57.183,58.919 C50.885,64.786 42.729,68.002 34.079,68.002 C25.018,68.002 16.501,64.474 10.094,58.066 C3.687,51.658 0.158,43.14 0.158,34.08 C0.158,25.017 3.687,16.499 10.095,10.094 C16.502,3.687 25.02,0.158 34.079,0.158 C43.14,0.158 51.657,3.686 58.064,10.094 C71,23.028 71.286,43.898 58.918,57.185 C59.984,56.457 61.245,56.067 62.565,56.067 C64.302,56.067 65.934,56.744 67.162,57.971 L83.937,74.746 C85.165,75.973 85.841,77.604 85.841,79.341 C85.841,81.078 85.165,82.71 83.937,83.938 C82.711,85.165 81.079,85.842 79.342,85.842 Z M62.565,59.066 C61.629,59.066 60.752,59.43 60.091,60.091 C59.429,60.752 59.065,61.63 59.065,62.565 C59.065,63.501 59.429,64.379 60.09,65.041 L76.866,81.816 C78.188,83.138 80.494,83.138 81.814,81.816 C82.476,81.155 82.84,80.276 82.84,79.34 C82.84,78.405 82.476,77.527 81.815,76.867 L65.04,60.092 C64.379,59.431 63.5,59.066 62.565,59.066 Z M34.079,3.158 C25.82,3.158 18.057,6.375 12.216,12.215 C6.375,18.054 3.158,25.819 3.158,34.08 C3.158,42.339 6.375,50.103 12.215,55.945 C18.056,61.785 25.82,65.002 34.079,65.002 C42.338,65.002 50.103,61.785 55.945,55.945 C68,43.888 67.999,24.271 55.943,12.215 C50.103,6.375 42.338,3.158 34.079,3.158 Z M34.079,58.002 C27.689,58.002 21.683,55.514 17.165,50.996 C12.646,46.476 10.158,40.469 10.158,34.08 C10.158,27.69 12.646,21.683 17.166,17.164 C21.684,12.646 27.69,10.158 34.079,10.158 C40.468,10.158 46.475,12.646 50.994,17.164 C60.321,26.491 60.321,41.667 50.995,50.994 C46.478,55.514 40.47,58.002 34.079,58.002 Z M34.079,13.158 C28.491,13.158 23.238,15.334 19.287,19.285 C15.335,23.237 13.158,28.492 13.158,34.08 C13.158,39.668 15.335,44.922 19.286,48.875 C23.237,52.826 28.491,55.002 34.079,55.002 C39.668,55.002 44.923,52.825 48.874,48.873 C57.03,40.716 57.03,27.442 48.873,19.285 C44.921,15.334 39.667,13.158 34.079,13.158 Z" id="Shape"></path>
        </g>
    </g>
</svg>