<svg xmlns="http://www.w3.org/2000/svg" xmlns:xlink="http://www.w3.org/1999/xlink" version="1.1" x="0px" y="0px" viewBox="0 0 100 125" enable-background="new 0 0 100 100" xml:space="preserve"><g><path d="M86.342,92.842c-1.737,0-3.369-0.677-4.597-1.904L64.97,74.162c-1.229-1.228-1.904-2.86-1.904-4.597   c0-1.319,0.391-2.579,1.117-3.646c-6.298,5.867-14.454,9.083-23.104,9.083c-9.061,0-17.578-3.528-23.985-9.936   C10.687,58.658,7.158,50.14,7.158,41.08c0-9.063,3.529-17.581,9.937-23.986c6.407-6.407,14.925-9.936,23.984-9.936   c9.061,0,17.578,3.528,23.985,9.936C78,30.028,78.286,50.898,65.918,64.185c1.066-0.728,2.327-1.118,3.647-1.118   c1.737,0,3.369,0.677,4.597,1.904l16.775,16.775c1.228,1.227,1.904,2.858,1.904,4.595s-0.676,3.369-1.904,4.597   C89.711,92.165,88.079,92.842,86.342,92.842z M69.565,66.066c-0.936,0-1.813,0.364-2.474,1.025   c-0.662,0.661-1.026,1.539-1.026,2.474c0,0.936,0.364,1.814,1.025,2.476l16.776,16.775c1.322,1.322,3.628,1.322,4.948,0   c0.662-0.661,1.026-1.54,1.026-2.476c0-0.935-0.364-1.813-1.025-2.473L72.04,67.092C71.379,66.431,70.5,66.066,69.565,66.066z    M41.079,10.158c-8.259,0-16.022,3.217-21.863,9.057c-5.841,5.839-9.058,13.604-9.058,21.865c0,8.259,3.217,16.023,9.057,21.865   c5.841,5.84,13.605,9.057,21.864,9.057s16.024-3.217,21.866-9.057C75,50.888,74.999,31.271,62.943,19.215   C57.103,13.375,49.338,10.158,41.079,10.158z M41.079,65.002c-6.39,0-12.396-2.488-16.914-7.006   c-4.519-4.52-7.007-10.527-7.007-16.916c0-6.39,2.488-12.397,7.008-16.916c4.518-4.518,10.524-7.006,16.913-7.006   s12.396,2.488,16.915,7.006c9.327,9.327,9.327,24.503,0.001,33.83C53.478,62.514,47.47,65.002,41.079,65.002z M41.079,20.158   c-5.588,0-10.841,2.176-14.792,6.127c-3.952,3.952-6.129,9.207-6.129,14.795s2.177,10.842,6.128,14.795   c3.951,3.951,9.205,6.127,14.793,6.127c5.589,0,10.844-2.177,14.795-6.129c8.156-8.157,8.156-21.431-0.001-29.588   C51.921,22.334,46.667,20.158,41.079,20.158z"/></g><text x="0" y="115" fill="#000000" font-size="5px" font-weight="bold" font-family="'Helvetica Neue', Helvetica, Arial-Unicode, Arial, Sans-serif">Created by Deepz</text><text x="0" y="120" fill="#000000" font-size="5px" font-weight="bold" font-family="'Helvetica Neue', Helvetica, Arial-Unicode, Arial, Sans-serif">from the Noun Project</text></svg>